<?xml version="1.0" standalone="no"?><!DOCTYPE svg PUBLIC "-//W3C//DTD SVG 1.1//EN" "http://www.w3.org/Graphics/SVG/1.1/DTD/svg11.dtd"><svg class="icon" height="512" viewBox="0 0 1024 1024" version="1.1" xmlns="http://www.w3.org/2000/svg"><path d="M853.333333 341.333333h85.333334v85.333334h-85.333334V341.333333M170.666667 213.333333h682.666666a85.333333 85.333333 0 0 1 85.333334 85.333334h-128v85.333333H213.333333v170.666667h128v128h469.333334v42.666666h128a85.333333 85.333333 0 0 1-85.333334 85.333334h-170.666666v42.666666h-85.333334v-42.666666h-128v42.666666H298.666667v-42.666666H170.666667a85.333333 85.333333 0 0 1-85.333334-85.333334V298.666667a85.333333 85.333333 0 0 1 85.333334-85.333334m640 426.666667H384v-213.333333h426.666667v42.666666h128v85.333334h-128v85.333333m-256-128v85.333333h85.333333v-85.333333h-85.333333M213.333333 256v85.333333h42.666667V256H213.333333m85.333334 0v85.333333h42.666666V256H298.666667m85.333333 0v85.333333h42.666667V256H384m85.333333 0v85.333333h42.666667V256h-42.666667m85.333334 0v85.333333h42.666666V256h-42.666666m85.333333 0v85.333333h42.666667V256h-42.666667m213.333333 341.333333h85.333334v85.333334h-85.333334v-85.333334z" fill="" /></svg>